<?xml version="1.0" encoding="iso-8859-1"?>
<!-- Uploaded to: SVG Repo, www.svgrepo.com, Generator: SVG Repo Mixer Tools -->
<svg fill="#000000" height="800px" width="800px" version="1.1" id="Layer_1" xmlns="http://www.w3.org/2000/svg" xmlns:xlink="http://www.w3.org/1999/xlink" 
	 viewBox="0 0 512.001 512.001" xml:space="preserve">
<g>
	<g>
		<path d="M509.653,353.198L412.455,256l97.197-97.197c1.504-1.504,2.348-3.542,2.348-5.668v-72.56c0-3.243-1.953-6.165-4.949-7.406
			c-2.994-1.24-6.443-0.555-8.736,1.738L385.49,187.731c-1.388-5.869-4.367-11.436-8.936-16.006
			c-13.128-13.126-34.489-13.127-47.616,0l-16.006,16.006c-1.388-5.87-4.366-11.436-8.936-16.006
			c-13.128-13.126-34.489-13.127-47.617,0l-16.006,16.006c-1.388-5.87-4.366-11.436-8.936-16.006
			c-13.128-13.126-34.489-13.127-47.617,0l-36.658,36.658L13.685,74.906c-2.293-2.293-5.742-2.978-8.736-1.738
			C1.953,74.41,0,77.333,0,80.576v72.56c0,2.126,0.844,4.165,2.348,5.668L99.545,256L2.348,353.197C0.844,354.7,0,356.739,0,358.865
			v72.56c0,3.243,1.953,6.165,4.949,7.406c0.992,0.41,2.033,0.61,3.067,0.61c2.086,0,4.137-0.814,5.67-2.348L126.511,324.27
			c1.388,5.869,4.367,11.436,8.937,16.005c6.359,6.36,14.815,9.863,23.807,9.863c8.994,0,17.45-3.503,23.809-9.863l16.006-16.006
			c1.388,5.869,4.366,11.436,8.936,16.006c6.36,6.36,14.815,9.863,23.809,9.863s17.45-3.503,23.809-9.863l16.006-16.006
			c1.388,5.869,4.366,11.436,8.936,16.006c6.359,6.36,14.815,9.863,23.809,9.863c8.994,0,17.45-3.503,23.809-9.863l36.657-36.657
			l133.477,133.477c1.534,1.534,3.584,2.348,5.67,2.348c1.033,0,2.075-0.2,3.067-0.61c2.996-1.241,4.949-4.164,4.949-7.406v-72.56
			C512.001,356.74,511.157,354.701,509.653,353.198z M16.033,149.814V99.929l119.791,119.792l-24.943,24.943L16.033,149.814z
			 M16.033,412.072v-49.885l179.123-179.123c6.877-6.876,18.066-6.876,24.943,0c6.875,6.875,6.876,18.06,0.004,24.936
			c-0.002,0.002-0.004,0.003-0.005,0.005L16.033,412.072z M316.844,328.937c-3.332,3.332-7.76,5.166-12.471,5.166
			c-4.711,0-9.14-1.834-12.471-5.166c-6.876-6.875-6.876-18.063-0.001-24.94c0.003-0.003,0.006-0.007,0.01-0.011l27.415-27.416
			c3.131-3.131,3.131-8.207,0-11.337c-3.131-3.131-8.207-3.131-11.337,0l-63.704,63.704c-3.332,3.332-7.76,5.166-12.471,5.166
			s-9.14-1.834-12.471-5.166c-6.876-6.875-6.876-18.063-0.001-24.94c0.009-0.009,0.016-0.018,0.025-0.027l62.612-62.613
			c3.131-3.131,3.131-8.207,0-11.337c-3.131-3.131-8.207-3.131-11.337,0l-98.915,98.916c-3.331,3.332-7.76,5.166-12.471,5.166
			c-4.711,0-9.14-1.834-12.471-5.166c-6.876-6.875-6.876-18.063-0.001-24.94c0.009-0.009,0.016-0.018,0.025-0.027l120.907-120.907
			c6.877-6.876,18.066-6.876,24.943,0c6.876,6.876,6.876,18.065,0,24.942c-3.131,3.131-3.13,8.207,0,11.337
			c3.131,3.132,8.207,3.131,11.337,0l36.278-36.278c6.876-6.876,18.066-6.876,24.942,0c6.875,6.876,6.876,18.063,0.001,24.94
			c-3.13,3.131-3.13,8.207,0.001,11.337c3.131,3.131,8.206,3.13,11.337,0L495.967,99.929v49.885L316.844,328.937z M495.967,412.072
			L376.176,292.281l24.943-24.943l94.848,94.848V412.072z"/>
	</g>
</g>
<g>
	<g>
		<path d="M352.996,231.563c-3.131-3.131-8.207-3.131-11.337,0l-9.62,9.62c-3.131,3.131-3.131,8.207,0,11.337
			c1.565,1.565,3.617,2.348,5.668,2.348c2.051,0,4.103-0.782,5.668-2.348l9.62-9.62
			C356.126,239.769,356.126,234.693,352.996,231.563z"/>
	</g>
</g>
</svg>